<?xml version="1.0" encoding="utf-8"?>
<!-- Svg Vector Icons : http://www.onlinewebfonts.com/icon -->
<!DOCTYPE svg PUBLIC "-//W3C//DTD SVG 1.1//EN" "http://www.w3.org/Graphics/SVG/1.1/DTD/svg11.dtd">
<svg version="1.1" xmlns="http://www.w3.org/2000/svg" xmlns:xlink="http://www.w3.org/1999/xlink" x="0px" y="0px" viewBox="0 0 1000 1000" enable-background="new 0 0 1000 1000" xml:space="preserve">
<metadata> Svg Vector Icons : http://www.onlinewebfonts.com/icon </metadata>
<g><g transform="translate(0.000000,511.000000) scale(0.100000,-0.100000)"><path d="M4894.7,4426.2c-45.9-44-47.9-55.5-47.9-306.3v-258.4H2521.3H193.8l-45.9-47.9l-47.9-45.9v-442.1v-442.1l47.9-45.9c45.9-47.9,51.7-47.9,382.8-47.9h335V722.5v-2067.2h-335c-331.1,0-336.9,0-382.8-47.9l-47.9-45.9v-442.1v-442.1l47.9-45.9l45.9-47.9h2216.5h2216.5l-809.6-809.6c-867.1-867.1-853.7-849.8-767.5-959c30.6-38.3,55.5-49.8,109.1-47.9c67,0,114.8,42.1,874.7,792.4l803.9,792.4l9.6-748.4l9.6-746.5l53.6-45.9c70.8-61.3,118.7-57.4,187.6,9.6l55.5,55.5v744.6v742.7l809.6-809.6c735-735,815.4-807.7,870.9-807.7c84.2,0,157,72.7,157,157c0,55.5-72.7,135.9-807.7,870.9l-809.6,809.6h2216.5h2216.5l45.9,47.9l47.9,45.9v442.1v442.1l-47.9,45.9c-44,45.9-55.5,47.9-306.3,47.9h-258.4V722.5v2067.2h258.4c250.7,0,262.2,1.9,306.3,47.9l47.9,45.9v442.1v442.1l-47.9,45.9l-45.9,47.9H7478.7H5153.1V4120c0,250.7-1.9,262.2-47.9,306.3c-28.7,30.6-68.9,47.9-105.3,47.9C4963.6,4474.1,4923.4,4456.8,4894.7,4426.2z M9593.7,3325.6v-229.7H5000H406.2v229.7v229.7H5000h4593.7V3325.6z M8981.2,722.5v-2067.2H5076.6H1171.9V722.5v2067.2h3904.7h3904.7V722.5z M9593.7-1880.6v-229.7H5000H406.2v229.7v229.7H5000h4593.7V-1880.6z"/><path d="M1985.4,1976.2l-47.9-45.9V645.9V-638.4l47.9-45.9l45.9-47.9h978.1h978.1l45.9,47.9l47.9,45.9V645.9v1284.3l-47.9,45.9l-45.9,47.9h-978.1h-978.1L1985.4,1976.2z M3775,645.9V-425.9h-765.6h-765.6V645.9v1071.9h765.6H3775V645.9z"/><path d="M4894.7,1823.1c-30.6-28.7-47.9-68.9-47.9-105.3s17.2-76.6,47.9-105.3l45.9-47.9h1590.6h1590.6l45.9,47.9c30.6,28.7,47.9,68.9,47.9,105.3s-17.2,76.6-47.9,105.3l-45.9,47.9H6531.2H4940.7L4894.7,1823.1z"/><path d="M4894.7,904.3c-30.6-28.7-47.9-68.9-47.9-105.3s17.2-76.6,47.9-105.3l45.9-47.9h1590.6h1590.6l45.9,47.9c30.6,28.7,47.9,68.9,47.9,105.3s-17.2,76.6-47.9,105.3l-45.9,47.9H6531.2H4940.7L4894.7,904.3z"/><path d="M4894.7,291.8c-30.6-28.7-47.9-68.9-47.9-105.3s17.2-76.6,47.9-105.3l45.9-47.9h1590.6h1590.6l45.9,47.9c30.6,28.7,47.9,68.9,47.9,105.3s-17.2,76.6-47.9,105.3l-45.9,47.9H6531.2H4940.7L4894.7,291.8z"/><path d="M4894.7-320.7c-30.6-28.7-47.9-68.9-47.9-105.3s17.2-76.6,47.9-105.3l45.9-47.9h1590.6h1590.6l45.9,47.9c30.6,28.7,47.9,68.9,47.9,105.3s-17.2,76.6-47.9,105.3l-45.9,47.9H6531.2H4940.7L4894.7-320.7z"/></g></g>
</svg>